<svg width="671" height="326" viewBox="0 0 671 326" fill="none" xmlns="http://www.w3.org/2000/svg">
<line x1="20.5247" y1="11.0698" x2="671" y2="11.0698" stroke="black"/>
<line x1="19.4722" y1="57.271" x2="669.948" y2="57.271" stroke="black"/>
<line x1="19.4722" y1="102.88" x2="669.948" y2="102.88" stroke="black"/>
<line x1="19.4722" y1="149.081" x2="669.948" y2="149.081" stroke="black"/>
<line x1="19.4722" y1="194.689" x2="669.948" y2="194.689" stroke="black"/>
<line x1="19.9984" y1="240.891" x2="670.474" y2="240.891" stroke="black"/>
<path d="M3.12012 7.40967L1.81934 7.07568L2.46094 0.703613H9.02637V2.20654H3.84082L3.4541 5.68701C3.68848 5.55225 3.98438 5.42627 4.3418 5.30908C4.70508 5.19189 5.12109 5.1333 5.58984 5.1333C6.18164 5.1333 6.71191 5.23584 7.18066 5.44092C7.64941 5.64014 8.04785 5.92725 8.37598 6.30225C8.70996 6.67725 8.96484 7.12842 9.14062 7.65576C9.31641 8.18311 9.4043 8.77197 9.4043 9.42236C9.4043 10.0376 9.31934 10.603 9.14941 11.1187C8.98535 11.6343 8.73633 12.0854 8.40234 12.4722C8.06836 12.853 7.64648 13.1489 7.13672 13.3599C6.63281 13.5708 6.03809 13.6763 5.35254 13.6763C4.83691 13.6763 4.34766 13.606 3.88477 13.4653C3.42773 13.3188 3.01758 13.0991 2.6543 12.8062C2.29688 12.5073 2.00391 12.1382 1.77539 11.6987C1.55273 11.2534 1.41211 10.7319 1.35352 10.1343H2.90039C2.9707 10.6147 3.11133 11.019 3.32227 11.3472C3.5332 11.6753 3.80859 11.9243 4.14844 12.0942C4.49414 12.2583 4.89551 12.3403 5.35254 12.3403C5.73926 12.3403 6.08203 12.2729 6.38086 12.1382C6.67969 12.0034 6.93164 11.8101 7.13672 11.5581C7.3418 11.3062 7.49707 11.0015 7.60254 10.644C7.71387 10.2866 7.76953 9.88525 7.76953 9.43994C7.76953 9.03564 7.71387 8.66064 7.60254 8.31494C7.49121 7.96924 7.32422 7.66748 7.10156 7.40967C6.88477 7.15186 6.61816 6.95264 6.30176 6.81201C5.98535 6.66553 5.62207 6.59229 5.21191 6.59229C4.66699 6.59229 4.25391 6.66553 3.97266 6.81201C3.69727 6.9585 3.41309 7.15771 3.12012 7.40967Z" fill="black"/>
<path d="M9.71191 66.0566V67.3926H0.46582V66.4346L6.19629 57.5664H7.52344L6.09961 60.1328L2.31152 66.0566H9.71191ZM7.92773 57.5664V70.3633H6.30176V57.5664H7.92773Z" fill="black"/>
<path d="M3.43652 120.028H4.59668C5.16504 120.028 5.63379 119.934 6.00293 119.747C6.37793 119.553 6.65625 119.292 6.83789 118.964C7.02539 118.63 7.11914 118.255 7.11914 117.839C7.11914 117.347 7.03711 116.934 6.87305 116.6C6.70898 116.266 6.46289 116.014 6.13477 115.844C5.80664 115.674 5.39062 115.589 4.88672 115.589C4.42969 115.589 4.02539 115.68 3.67383 115.862C3.32812 116.038 3.05566 116.29 2.85645 116.618C2.66309 116.946 2.56641 117.333 2.56641 117.778H0.94043C0.94043 117.127 1.10449 116.536 1.43262 116.002C1.76074 115.469 2.2207 115.044 2.8125 114.728C3.41016 114.412 4.10156 114.253 4.88672 114.253C5.66016 114.253 6.33691 114.391 6.91699 114.667C7.49707 114.936 7.94824 115.34 8.27051 115.879C8.59277 116.413 8.75391 117.078 8.75391 117.875C8.75391 118.197 8.67773 118.542 8.52539 118.912C8.37891 119.275 8.14746 119.615 7.83105 119.931C7.52051 120.248 7.11621 120.508 6.61816 120.713C6.12012 120.913 5.52246 121.012 4.8252 121.012H3.43652V120.028ZM3.43652 121.364V120.388H4.8252C5.63965 120.388 6.31348 120.485 6.84668 120.678C7.37988 120.872 7.79883 121.129 8.10352 121.452C8.41406 121.774 8.63086 122.128 8.75391 122.515C8.88281 122.896 8.94727 123.277 8.94727 123.658C8.94727 124.255 8.84473 124.786 8.63965 125.249C8.44043 125.711 8.15625 126.104 7.78711 126.426C7.42383 126.749 6.99609 126.992 6.50391 127.156C6.01172 127.32 5.47559 127.402 4.89551 127.402C4.33887 127.402 3.81445 127.323 3.32227 127.165C2.83594 127.006 2.40527 126.778 2.03027 126.479C1.65527 126.174 1.3623 125.802 1.15137 125.363C0.94043 124.917 0.834961 124.411 0.834961 123.842H2.46094C2.46094 124.288 2.55762 124.677 2.75098 125.011C2.9502 125.345 3.23145 125.606 3.59473 125.793C3.96387 125.975 4.39746 126.066 4.89551 126.066C5.39355 126.066 5.82129 125.981 6.17871 125.811C6.54199 125.635 6.82031 125.372 7.01367 125.02C7.21289 124.668 7.3125 124.226 7.3125 123.693C7.3125 123.16 7.20117 122.723 6.97852 122.383C6.75586 122.038 6.43945 121.783 6.0293 121.619C5.625 121.449 5.14746 121.364 4.59668 121.364H3.43652Z" fill="black"/>
<path d="M9.97449 182.753V184.089H1.59851V182.92L5.79089 178.253C6.30652 177.679 6.70496 177.193 6.98621 176.794C7.27332 176.39 7.47253 176.03 7.58386 175.713C7.70105 175.391 7.75964 175.063 7.75964 174.729C7.75964 174.307 7.67175 173.926 7.49597 173.586C7.32605 173.241 7.0741 172.965 6.74011 172.76C6.40613 172.555 6.00183 172.453 5.52722 172.453C4.95886 172.453 4.48425 172.564 4.10339 172.787C3.72839 173.003 3.44714 173.308 3.25964 173.701C3.07214 174.093 2.97839 174.544 2.97839 175.054H1.35242C1.35242 174.333 1.51062 173.674 1.82703 173.077C2.14343 172.479 2.61218 172.004 3.23328 171.653C3.85437 171.295 4.61902 171.117 5.52722 171.117C6.33582 171.117 7.02722 171.26 7.60144 171.547C8.17566 171.829 8.61511 172.227 8.9198 172.743C9.23035 173.252 9.38562 173.85 9.38562 174.536C9.38562 174.911 9.32117 175.292 9.19226 175.678C9.06921 176.059 8.89636 176.44 8.67371 176.821C8.45691 177.202 8.20203 177.577 7.90906 177.946C7.62195 178.315 7.31433 178.678 6.98621 179.036L3.55847 182.753H9.97449Z" fill="black"/>
<path d="M7.45978 228.085V240.952H5.8338V230.115L2.55548 231.311V229.843L7.2049 228.085H7.45978Z" fill="black"/>
<rect x="38.9443" y="10.9775" width="93.1506" height="229.821" fill="#C4C4C4"/>
<rect x="169.46" y="102.788" width="93.1506" height="138.011" fill="#C4C4C4"/>
<rect x="428.387" y="102.788" width="93.1506" height="138.011" fill="#C4C4C4"/>
<rect x="298.924" y="148.989" width="93.1506" height="91.8099" fill="#C4C4C4"/>
<rect x="557.851" y="148.989" width="93.1506" height="91.8099" fill="#C4C4C4"/>
<path d="M307.306 271.266C307.306 270.967 307.259 270.704 307.165 270.475C307.077 270.241 306.919 270.03 306.69 269.842C306.468 269.655 306.157 269.476 305.759 269.306C305.366 269.136 304.868 268.963 304.265 268.788C303.632 268.6 303.061 268.392 302.551 268.164C302.041 267.929 301.604 267.663 301.241 267.364C300.878 267.065 300.6 266.722 300.406 266.335C300.213 265.949 300.116 265.506 300.116 265.008C300.116 264.51 300.219 264.05 300.424 263.628C300.629 263.207 300.922 262.84 301.303 262.53C301.689 262.213 302.149 261.967 302.683 261.792C303.216 261.616 303.811 261.528 304.467 261.528C305.428 261.528 306.242 261.712 306.91 262.082C307.584 262.445 308.097 262.922 308.448 263.514C308.8 264.1 308.976 264.727 308.976 265.395H307.288C307.288 264.915 307.186 264.49 306.98 264.121C306.775 263.746 306.465 263.453 306.049 263.242C305.633 263.025 305.105 262.917 304.467 262.917C303.863 262.917 303.365 263.007 302.973 263.189C302.58 263.371 302.287 263.617 302.094 263.927C301.906 264.238 301.812 264.592 301.812 264.991C301.812 265.26 301.868 265.506 301.979 265.729C302.097 265.946 302.275 266.148 302.516 266.335C302.762 266.523 303.072 266.696 303.447 266.854C303.828 267.012 304.282 267.165 304.81 267.311C305.536 267.516 306.163 267.745 306.69 267.997C307.218 268.249 307.651 268.533 307.991 268.849C308.337 269.16 308.592 269.514 308.756 269.913C308.926 270.305 309.011 270.75 309.011 271.249C309.011 271.77 308.905 272.242 308.694 272.664C308.483 273.085 308.182 273.446 307.789 273.745C307.396 274.043 306.925 274.275 306.374 274.439C305.829 274.597 305.22 274.676 304.546 274.676C303.954 274.676 303.371 274.594 302.797 274.43C302.229 274.266 301.71 274.02 301.241 273.692C300.778 273.364 300.406 272.959 300.125 272.479C299.85 271.993 299.712 271.43 299.712 270.792H301.399C301.399 271.231 301.484 271.609 301.654 271.925C301.824 272.236 302.056 272.494 302.349 272.699C302.647 272.904 302.984 273.056 303.359 273.156C303.74 273.25 304.136 273.296 304.546 273.296C305.138 273.296 305.639 273.214 306.049 273.05C306.459 272.886 306.77 272.652 306.98 272.347C307.197 272.042 307.306 271.682 307.306 271.266ZM312.553 266.819V278.157H310.918V264.991H312.412L312.553 266.819ZM318.96 269.667V269.851C318.96 270.542 318.878 271.184 318.714 271.776C318.55 272.362 318.31 272.872 317.993 273.305C317.683 273.739 317.299 274.076 316.842 274.316C316.385 274.556 315.86 274.676 315.269 274.676C314.665 274.676 314.132 274.577 313.669 274.377C313.206 274.178 312.813 273.888 312.491 273.507C312.169 273.126 311.911 272.669 311.718 272.136C311.53 271.603 311.401 271.002 311.331 270.334V269.35C311.401 268.647 311.533 268.017 311.727 267.46C311.92 266.904 312.175 266.429 312.491 266.037C312.813 265.638 313.203 265.336 313.66 265.131C314.117 264.92 314.645 264.815 315.242 264.815C315.84 264.815 316.37 264.932 316.833 265.167C317.296 265.395 317.686 265.723 318.002 266.151C318.318 266.579 318.556 267.091 318.714 267.689C318.878 268.281 318.96 268.94 318.96 269.667ZM317.325 269.851V269.667C317.325 269.192 317.275 268.747 317.176 268.331C317.076 267.909 316.921 267.54 316.71 267.223C316.505 266.901 316.241 266.649 315.919 266.467C315.597 266.28 315.213 266.186 314.768 266.186C314.357 266.186 314 266.256 313.695 266.397C313.396 266.538 313.142 266.728 312.931 266.968C312.72 267.203 312.547 267.472 312.412 267.777C312.283 268.076 312.187 268.386 312.122 268.708V270.985C312.239 271.395 312.403 271.782 312.614 272.145C312.825 272.502 313.106 272.792 313.458 273.015C313.81 273.232 314.252 273.34 314.785 273.34C315.225 273.34 315.603 273.25 315.919 273.068C316.241 272.88 316.505 272.625 316.71 272.303C316.921 271.981 317.076 271.612 317.176 271.196C317.275 270.774 317.325 270.326 317.325 269.851ZM320.604 269.851V269.649C320.604 268.963 320.703 268.328 320.902 267.742C321.102 267.15 321.389 266.637 321.764 266.204C322.139 265.764 322.593 265.424 323.126 265.184C323.659 264.938 324.257 264.815 324.919 264.815C325.587 264.815 326.188 264.938 326.721 265.184C327.26 265.424 327.717 265.764 328.092 266.204C328.473 266.637 328.763 267.15 328.962 267.742C329.161 268.328 329.261 268.963 329.261 269.649V269.851C329.261 270.537 329.161 271.172 328.962 271.758C328.763 272.344 328.473 272.857 328.092 273.296C327.717 273.73 327.263 274.07 326.729 274.316C326.202 274.556 325.604 274.676 324.937 274.676C324.269 274.676 323.668 274.556 323.135 274.316C322.602 274.07 322.145 273.73 321.764 273.296C321.389 272.857 321.102 272.344 320.902 271.758C320.703 271.172 320.604 270.537 320.604 269.851ZM322.229 269.649V269.851C322.229 270.326 322.285 270.774 322.396 271.196C322.508 271.612 322.675 271.981 322.897 272.303C323.126 272.625 323.41 272.88 323.75 273.068C324.09 273.25 324.485 273.34 324.937 273.34C325.382 273.34 325.771 273.25 326.105 273.068C326.445 272.88 326.727 272.625 326.949 272.303C327.172 271.981 327.339 271.612 327.45 271.196C327.567 270.774 327.626 270.326 327.626 269.851V269.649C327.626 269.18 327.567 268.738 327.45 268.322C327.339 267.9 327.169 267.528 326.94 267.206C326.718 266.877 326.437 266.62 326.097 266.432C325.763 266.245 325.37 266.151 324.919 266.151C324.474 266.151 324.081 266.245 323.741 266.432C323.407 266.62 323.126 266.877 322.897 267.206C322.675 267.528 322.508 267.9 322.396 268.322C322.285 268.738 322.229 269.18 322.229 269.649ZM332.926 267.021V274.5H331.3V264.991H332.838L332.926 267.021ZM332.539 269.385L331.862 269.359C331.868 268.708 331.965 268.108 332.152 267.557C332.34 267 332.604 266.517 332.943 266.107C333.283 265.697 333.688 265.38 334.156 265.158C334.631 264.929 335.155 264.815 335.729 264.815C336.198 264.815 336.62 264.879 336.995 265.008C337.37 265.131 337.689 265.331 337.953 265.606C338.223 265.881 338.428 266.239 338.568 266.678C338.709 267.112 338.779 267.642 338.779 268.269V274.5H337.145V268.251C337.145 267.753 337.071 267.355 336.925 267.056C336.778 266.751 336.564 266.532 336.283 266.397C336.002 266.256 335.656 266.186 335.246 266.186C334.842 266.186 334.473 266.271 334.139 266.441C333.811 266.611 333.526 266.845 333.286 267.144C333.052 267.443 332.867 267.786 332.732 268.172C332.604 268.553 332.539 268.958 332.539 269.385ZM345.23 264.991V266.239H340.089V264.991H345.23ZM341.829 262.679H343.455V272.145C343.455 272.467 343.505 272.71 343.604 272.875C343.704 273.039 343.833 273.147 343.991 273.2C344.149 273.252 344.319 273.279 344.501 273.279C344.636 273.279 344.776 273.267 344.923 273.244C345.075 273.214 345.189 273.191 345.266 273.173L345.274 274.5C345.146 274.542 344.976 274.58 344.765 274.615C344.56 274.656 344.311 274.676 344.018 274.676C343.619 274.676 343.253 274.597 342.919 274.439C342.585 274.281 342.318 274.017 342.119 273.648C341.926 273.273 341.829 272.769 341.829 272.136V262.679ZM352.745 272.875V267.979C352.745 267.604 352.669 267.279 352.517 267.003C352.37 266.722 352.147 266.505 351.849 266.353C351.55 266.201 351.181 266.125 350.741 266.125C350.331 266.125 349.971 266.195 349.66 266.335C349.355 266.476 349.115 266.661 348.939 266.889C348.77 267.118 348.685 267.364 348.685 267.627H347.059C347.059 267.288 347.146 266.951 347.322 266.617C347.498 266.283 347.75 265.981 348.078 265.711C348.412 265.436 348.811 265.219 349.273 265.061C349.742 264.897 350.264 264.815 350.838 264.815C351.529 264.815 352.139 264.932 352.666 265.167C353.199 265.401 353.615 265.755 353.914 266.23C354.219 266.699 354.371 267.288 354.371 267.997V272.426C354.371 272.743 354.397 273.08 354.45 273.437C354.509 273.794 354.594 274.102 354.705 274.36V274.5H353.009C352.927 274.313 352.862 274.064 352.815 273.753C352.769 273.437 352.745 273.144 352.745 272.875ZM353.026 268.735L353.044 269.877H351.4C350.938 269.877 350.524 269.916 350.161 269.992C349.798 270.062 349.493 270.17 349.247 270.317C349.001 270.463 348.813 270.648 348.685 270.871C348.556 271.087 348.491 271.342 348.491 271.635C348.491 271.934 348.559 272.207 348.693 272.453C348.828 272.699 349.03 272.895 349.3 273.042C349.575 273.182 349.912 273.252 350.311 273.252C350.809 273.252 351.248 273.147 351.629 272.936C352.01 272.725 352.312 272.467 352.534 272.163C352.763 271.858 352.886 271.562 352.903 271.275L353.598 272.057C353.557 272.303 353.445 272.576 353.264 272.875C353.082 273.173 352.839 273.46 352.534 273.736C352.235 274.005 351.878 274.231 351.462 274.413C351.052 274.588 350.589 274.676 350.073 274.676C349.429 274.676 348.863 274.55 348.377 274.298C347.896 274.046 347.521 273.709 347.252 273.288C346.988 272.86 346.856 272.382 346.856 271.855C346.856 271.345 346.956 270.897 347.155 270.51C347.354 270.118 347.642 269.792 348.017 269.535C348.392 269.271 348.843 269.072 349.37 268.937C349.897 268.802 350.486 268.735 351.137 268.735H353.026ZM362.536 272.875V267.979C362.536 267.604 362.46 267.279 362.308 267.003C362.161 266.722 361.938 266.505 361.64 266.353C361.341 266.201 360.972 266.125 360.532 266.125C360.122 266.125 359.762 266.195 359.451 266.335C359.146 266.476 358.906 266.661 358.73 266.889C358.561 267.118 358.476 267.364 358.476 267.627H356.85C356.85 267.288 356.938 266.951 357.113 266.617C357.289 266.283 357.541 265.981 357.869 265.711C358.203 265.436 358.602 265.219 359.064 265.061C359.533 264.897 360.055 264.815 360.629 264.815C361.32 264.815 361.93 264.932 362.457 265.167C362.99 265.401 363.406 265.755 363.705 266.23C364.01 266.699 364.162 267.288 364.162 267.997V272.426C364.162 272.743 364.188 273.08 364.241 273.437C364.3 273.794 364.385 274.102 364.496 274.36V274.5H362.8C362.718 274.313 362.653 274.064 362.606 273.753C362.56 273.437 362.536 273.144 362.536 272.875ZM362.817 268.735L362.835 269.877H361.191C360.729 269.877 360.315 269.916 359.952 269.992C359.589 270.062 359.284 270.17 359.038 270.317C358.792 270.463 358.604 270.648 358.476 270.871C358.347 271.087 358.282 271.342 358.282 271.635C358.282 271.934 358.35 272.207 358.484 272.453C358.619 272.699 358.821 272.895 359.091 273.042C359.366 273.182 359.703 273.252 360.102 273.252C360.6 273.252 361.039 273.147 361.42 272.936C361.801 272.725 362.103 272.467 362.325 272.163C362.554 271.858 362.677 271.562 362.694 271.275L363.389 272.057C363.348 272.303 363.236 272.576 363.055 272.875C362.873 273.173 362.63 273.46 362.325 273.736C362.026 274.005 361.669 274.231 361.253 274.413C360.843 274.588 360.38 274.676 359.864 274.676C359.22 274.676 358.654 274.55 358.168 274.298C357.688 274.046 357.312 273.709 357.043 273.288C356.779 272.86 356.647 272.382 356.647 271.855C356.647 271.345 356.747 270.897 356.946 270.51C357.146 270.118 357.433 269.792 357.808 269.535C358.183 269.271 358.634 269.072 359.161 268.937C359.688 268.802 360.277 268.735 360.928 268.735H362.817ZM368.346 267.021V274.5H366.72V264.991H368.258L368.346 267.021ZM367.959 269.385L367.282 269.359C367.288 268.708 367.385 268.108 367.572 267.557C367.76 267 368.023 266.517 368.363 266.107C368.703 265.697 369.107 265.38 369.576 265.158C370.051 264.929 370.575 264.815 371.149 264.815C371.618 264.815 372.04 264.879 372.415 265.008C372.79 265.131 373.109 265.331 373.373 265.606C373.643 265.881 373.848 266.239 373.988 266.678C374.129 267.112 374.199 267.642 374.199 268.269V274.5H372.564V268.251C372.564 267.753 372.491 267.355 372.345 267.056C372.198 266.751 371.984 266.532 371.703 266.397C371.422 266.256 371.076 266.186 370.666 266.186C370.262 266.186 369.893 266.271 369.559 266.441C369.23 266.611 368.946 266.845 368.706 267.144C368.472 267.443 368.287 267.786 368.152 268.172C368.023 268.553 367.959 268.958 367.959 269.385Z" fill="black"/>
<path d="M563.616 272.558L567.387 261.704H569.224L564.486 274.5H563.177L563.616 272.558ZM560.092 261.704L563.827 272.558L564.293 274.5H562.983L558.255 261.704H560.092ZM574.26 274.676C573.598 274.676 572.997 274.565 572.458 274.342C571.925 274.114 571.465 273.794 571.078 273.384C570.697 272.974 570.404 272.488 570.199 271.925C569.994 271.363 569.892 270.748 569.892 270.08V269.71C569.892 268.937 570.006 268.249 570.234 267.645C570.463 267.036 570.773 266.52 571.166 266.098C571.559 265.676 572.004 265.357 572.502 265.14C573 264.923 573.516 264.815 574.049 264.815C574.729 264.815 575.314 264.932 575.807 265.167C576.305 265.401 576.712 265.729 577.028 266.151C577.345 266.567 577.579 267.059 577.731 267.627C577.884 268.19 577.96 268.805 577.96 269.473V270.203H570.858V268.875H576.334V268.752C576.311 268.331 576.223 267.92 576.07 267.522C575.924 267.124 575.689 266.795 575.367 266.538C575.045 266.28 574.605 266.151 574.049 266.151C573.68 266.151 573.34 266.23 573.029 266.388C572.719 266.541 572.452 266.769 572.229 267.074C572.007 267.378 571.834 267.75 571.711 268.19C571.588 268.629 571.526 269.136 571.526 269.71V270.08C571.526 270.531 571.588 270.956 571.711 271.354C571.84 271.747 572.024 272.092 572.265 272.391C572.511 272.69 572.807 272.924 573.152 273.094C573.504 273.264 573.902 273.349 574.348 273.349C574.922 273.349 575.408 273.232 575.807 272.998C576.205 272.763 576.554 272.45 576.853 272.057L577.837 272.839C577.632 273.15 577.371 273.446 577.055 273.727C576.738 274.008 576.349 274.237 575.886 274.413C575.429 274.588 574.887 274.676 574.26 274.676ZM581.484 266.485V274.5H579.858V264.991H581.44L581.484 266.485ZM584.455 264.938L584.446 266.45C584.312 266.42 584.183 266.403 584.06 266.397C583.942 266.385 583.808 266.379 583.655 266.379C583.28 266.379 582.949 266.438 582.662 266.555C582.375 266.672 582.132 266.836 581.933 267.047C581.733 267.258 581.575 267.51 581.458 267.803C581.347 268.09 581.273 268.407 581.238 268.752L580.781 269.016C580.781 268.442 580.837 267.903 580.948 267.399C581.065 266.895 581.244 266.45 581.484 266.063C581.725 265.67 582.029 265.366 582.398 265.149C582.773 264.926 583.219 264.815 583.734 264.815C583.852 264.815 583.986 264.83 584.139 264.859C584.291 264.882 584.396 264.909 584.455 264.938ZM591.776 272.655V261H593.411V274.5H591.917L591.776 272.655ZM585.378 269.851V269.667C585.378 268.94 585.466 268.281 585.642 267.689C585.823 267.091 586.078 266.579 586.406 266.151C586.74 265.723 587.136 265.395 587.593 265.167C588.056 264.932 588.571 264.815 589.14 264.815C589.737 264.815 590.259 264.92 590.704 265.131C591.155 265.336 591.536 265.638 591.847 266.037C592.163 266.429 592.412 266.904 592.594 267.46C592.775 268.017 592.901 268.647 592.972 269.35V270.159C592.907 270.856 592.781 271.483 592.594 272.04C592.412 272.596 592.163 273.071 591.847 273.463C591.536 273.856 591.155 274.158 590.704 274.369C590.253 274.574 589.726 274.676 589.122 274.676C588.565 274.676 588.056 274.556 587.593 274.316C587.136 274.076 586.74 273.739 586.406 273.305C586.078 272.872 585.823 272.362 585.642 271.776C585.466 271.184 585.378 270.542 585.378 269.851ZM587.013 269.667V269.851C587.013 270.326 587.06 270.771 587.153 271.187C587.253 271.603 587.405 271.969 587.61 272.286C587.815 272.602 588.076 272.851 588.393 273.033C588.709 273.208 589.087 273.296 589.526 273.296C590.065 273.296 590.508 273.182 590.854 272.954C591.205 272.725 591.486 272.423 591.697 272.048C591.908 271.673 592.072 271.266 592.189 270.827V268.708C592.119 268.386 592.017 268.076 591.882 267.777C591.753 267.472 591.583 267.203 591.372 266.968C591.167 266.728 590.912 266.538 590.607 266.397C590.309 266.256 589.954 266.186 589.544 266.186C589.099 266.186 588.715 266.28 588.393 266.467C588.076 266.649 587.815 266.901 587.61 267.223C587.405 267.54 587.253 267.909 587.153 268.331C587.06 268.747 587.013 269.192 587.013 269.667ZM599.889 274.676C599.227 274.676 598.626 274.565 598.087 274.342C597.554 274.114 597.094 273.794 596.707 273.384C596.326 272.974 596.033 272.488 595.828 271.925C595.623 271.363 595.521 270.748 595.521 270.08V269.71C595.521 268.937 595.635 268.249 595.863 267.645C596.092 267.036 596.402 266.52 596.795 266.098C597.188 265.676 597.633 265.357 598.131 265.14C598.629 264.923 599.145 264.815 599.678 264.815C600.357 264.815 600.943 264.932 601.436 265.167C601.934 265.401 602.341 265.729 602.657 266.151C602.974 266.567 603.208 267.059 603.36 267.627C603.513 268.19 603.589 268.805 603.589 269.473V270.203H596.487V268.875H601.963V268.752C601.939 268.331 601.852 267.92 601.699 267.522C601.553 267.124 601.318 266.795 600.996 266.538C600.674 266.28 600.234 266.151 599.678 266.151C599.309 266.151 598.969 266.23 598.658 266.388C598.348 266.541 598.081 266.769 597.858 267.074C597.636 267.378 597.463 267.75 597.34 268.19C597.217 268.629 597.155 269.136 597.155 269.71V270.08C597.155 270.531 597.217 270.956 597.34 271.354C597.469 271.747 597.653 272.092 597.894 272.391C598.14 272.69 598.436 272.924 598.781 273.094C599.133 273.264 599.531 273.349 599.977 273.349C600.551 273.349 601.037 273.232 601.436 272.998C601.834 272.763 602.183 272.45 602.481 272.057L603.466 272.839C603.261 273.15 603 273.446 602.684 273.727C602.367 274.008 601.978 274.237 601.515 274.413C601.058 274.588 600.516 274.676 599.889 274.676ZM607.113 266.485V274.5H605.487V264.991H607.069L607.113 266.485ZM610.084 264.938L610.075 266.45C609.94 266.42 609.812 266.403 609.688 266.397C609.571 266.385 609.437 266.379 609.284 266.379C608.909 266.379 608.578 266.438 608.291 266.555C608.004 266.672 607.761 266.836 607.562 267.047C607.362 267.258 607.204 267.51 607.087 267.803C606.976 268.09 606.902 268.407 606.867 268.752L606.41 269.016C606.41 268.442 606.466 267.903 606.577 267.399C606.694 266.895 606.873 266.45 607.113 266.063C607.354 265.67 607.658 265.366 608.027 265.149C608.402 264.926 608.848 264.815 609.363 264.815C609.48 264.815 609.615 264.83 609.768 264.859C609.92 264.882 610.025 264.909 610.084 264.938ZM615.357 274.676C614.695 274.676 614.095 274.565 613.556 274.342C613.022 274.114 612.562 273.794 612.176 273.384C611.795 272.974 611.502 272.488 611.297 271.925C611.092 271.363 610.989 270.748 610.989 270.08V269.71C610.989 268.937 611.104 268.249 611.332 267.645C611.561 267.036 611.871 266.52 612.264 266.098C612.656 265.676 613.102 265.357 613.6 265.14C614.098 264.923 614.613 264.815 615.146 264.815C615.826 264.815 616.412 264.932 616.904 265.167C617.402 265.401 617.81 265.729 618.126 266.151C618.442 266.567 618.677 267.059 618.829 267.627C618.981 268.19 619.058 268.805 619.058 269.473V270.203H611.956V268.875H617.432V268.752C617.408 268.331 617.32 267.92 617.168 267.522C617.021 267.124 616.787 266.795 616.465 266.538C616.143 266.28 615.703 266.151 615.146 266.151C614.777 266.151 614.438 266.23 614.127 266.388C613.816 266.541 613.55 266.769 613.327 267.074C613.104 267.378 612.932 267.75 612.809 268.19C612.686 268.629 612.624 269.136 612.624 269.71V270.08C612.624 270.531 612.686 270.956 612.809 271.354C612.938 271.747 613.122 272.092 613.362 272.391C613.608 272.69 613.904 272.924 614.25 273.094C614.602 273.264 615 273.349 615.445 273.349C616.02 273.349 616.506 273.232 616.904 272.998C617.303 272.763 617.651 272.45 617.95 272.057L618.935 272.839C618.729 273.15 618.469 273.446 618.152 273.727C617.836 274.008 617.446 274.237 616.983 274.413C616.526 274.588 615.984 274.676 615.357 274.676ZM627.188 264.991V274.5H625.553V264.991H627.188ZM625.43 262.468C625.43 262.205 625.509 261.982 625.667 261.8C625.831 261.619 626.071 261.528 626.388 261.528C626.698 261.528 626.936 261.619 627.1 261.8C627.27 261.982 627.354 262.205 627.354 262.468C627.354 262.72 627.27 262.937 627.1 263.119C626.936 263.294 626.698 263.382 626.388 263.382C626.071 263.382 625.831 263.294 625.667 263.119C625.509 262.937 625.43 262.72 625.43 262.468ZM631.424 267.021V274.5H629.798V264.991H631.336L631.424 267.021ZM631.037 269.385L630.36 269.359C630.366 268.708 630.463 268.108 630.65 267.557C630.838 267 631.102 266.517 631.441 266.107C631.781 265.697 632.186 265.38 632.654 265.158C633.129 264.929 633.653 264.815 634.228 264.815C634.696 264.815 635.118 264.879 635.493 265.008C635.868 265.131 636.188 265.331 636.451 265.606C636.721 265.881 636.926 266.239 637.066 266.678C637.207 267.112 637.277 267.642 637.277 268.269V274.5H635.643V268.251C635.643 267.753 635.569 267.355 635.423 267.056C635.276 266.751 635.062 266.532 634.781 266.397C634.5 266.256 634.154 266.186 633.744 266.186C633.34 266.186 632.971 266.271 632.637 266.441C632.309 266.611 632.024 266.845 631.784 267.144C631.55 267.443 631.365 267.786 631.23 268.172C631.102 268.553 631.037 268.958 631.037 269.385ZM642.173 274.5H640.547V263.989C640.547 263.303 640.67 262.726 640.916 262.257C641.168 261.783 641.528 261.425 641.997 261.185C642.466 260.939 643.022 260.816 643.667 260.816C643.854 260.816 644.042 260.828 644.229 260.851C644.423 260.875 644.61 260.91 644.792 260.957L644.704 262.284C644.581 262.254 644.44 262.234 644.282 262.222C644.13 262.21 643.978 262.205 643.825 262.205C643.479 262.205 643.181 262.275 642.929 262.416C642.683 262.55 642.495 262.75 642.366 263.013C642.237 263.277 642.173 263.602 642.173 263.989V274.5ZM644.194 264.991V266.239H639.044V264.991H644.194ZM645.574 269.851V269.649C645.574 268.963 645.674 268.328 645.873 267.742C646.072 267.15 646.359 266.637 646.734 266.204C647.109 265.764 647.563 265.424 648.097 265.184C648.63 264.938 649.228 264.815 649.89 264.815C650.558 264.815 651.158 264.938 651.691 265.184C652.23 265.424 652.688 265.764 653.062 266.204C653.443 266.637 653.733 267.15 653.933 267.742C654.132 268.328 654.231 268.963 654.231 269.649V269.851C654.231 270.537 654.132 271.172 653.933 271.758C653.733 272.344 653.443 272.857 653.062 273.296C652.688 273.73 652.233 274.07 651.7 274.316C651.173 274.556 650.575 274.676 649.907 274.676C649.239 274.676 648.639 274.556 648.105 274.316C647.572 274.07 647.115 273.73 646.734 273.296C646.359 272.857 646.072 272.344 645.873 271.758C645.674 271.172 645.574 270.537 645.574 269.851ZM647.2 269.649V269.851C647.2 270.326 647.256 270.774 647.367 271.196C647.479 271.612 647.646 271.981 647.868 272.303C648.097 272.625 648.381 272.88 648.721 273.068C649.061 273.25 649.456 273.34 649.907 273.34C650.353 273.34 650.742 273.25 651.076 273.068C651.416 272.88 651.697 272.625 651.92 272.303C652.143 271.981 652.31 271.612 652.421 271.196C652.538 270.774 652.597 270.326 652.597 269.851V269.649C652.597 269.18 652.538 268.738 652.421 268.322C652.31 267.9 652.14 267.528 651.911 267.206C651.688 266.877 651.407 266.62 651.067 266.432C650.733 266.245 650.341 266.151 649.89 266.151C649.444 266.151 649.052 266.245 648.712 266.432C648.378 266.62 648.097 266.877 647.868 267.206C647.646 267.528 647.479 267.9 647.367 268.322C647.256 268.738 647.2 269.18 647.2 269.649ZM561.006 285.991V295.5H559.371V285.991H561.006ZM559.248 283.468C559.248 283.205 559.327 282.982 559.485 282.8C559.649 282.619 559.89 282.528 560.206 282.528C560.517 282.528 560.754 282.619 560.918 282.8C561.088 282.982 561.173 283.205 561.173 283.468C561.173 283.72 561.088 283.937 560.918 284.119C560.754 284.294 560.517 284.382 560.206 284.382C559.89 284.382 559.649 284.294 559.485 284.119C559.327 283.937 559.248 283.72 559.248 283.468ZM565.242 288.021V295.5H563.616V285.991H565.154L565.242 288.021ZM564.855 290.385L564.179 290.359C564.185 289.708 564.281 289.108 564.469 288.557C564.656 288 564.92 287.517 565.26 287.107C565.6 286.697 566.004 286.38 566.473 286.158C566.947 285.929 567.472 285.815 568.046 285.815C568.515 285.815 568.937 285.879 569.312 286.008C569.687 286.131 570.006 286.331 570.27 286.606C570.539 286.881 570.744 287.239 570.885 287.678C571.025 288.112 571.096 288.642 571.096 289.269V295.5H569.461V289.251C569.461 288.753 569.388 288.355 569.241 288.056C569.095 287.751 568.881 287.532 568.6 287.397C568.318 287.256 567.973 287.186 567.562 287.186C567.158 287.186 566.789 287.271 566.455 287.441C566.127 287.611 565.843 287.845 565.603 288.144C565.368 288.443 565.184 288.786 565.049 289.172C564.92 289.553 564.855 289.958 564.855 290.385ZM583.014 283.837L578.777 295.5H577.046L581.924 282.704H583.04L583.014 283.837ZM586.564 295.5L582.319 283.837L582.293 282.704H583.409L588.305 295.5H586.564ZM586.345 290.763V292.152H579.155V290.763H586.345ZM591.398 287.819V299.157H589.764V285.991H591.258L591.398 287.819ZM597.806 290.667V290.851C597.806 291.542 597.724 292.184 597.56 292.776C597.396 293.362 597.155 293.872 596.839 294.305C596.528 294.739 596.145 295.076 595.688 295.316C595.23 295.556 594.706 295.676 594.114 295.676C593.511 295.676 592.978 295.577 592.515 295.377C592.052 295.178 591.659 294.888 591.337 294.507C591.015 294.126 590.757 293.669 590.563 293.136C590.376 292.603 590.247 292.002 590.177 291.334V290.35C590.247 289.647 590.379 289.017 590.572 288.46C590.766 287.904 591.021 287.429 591.337 287.037C591.659 286.638 592.049 286.336 592.506 286.131C592.963 285.92 593.49 285.815 594.088 285.815C594.686 285.815 595.216 285.932 595.679 286.167C596.142 286.395 596.531 286.723 596.848 287.151C597.164 287.579 597.401 288.091 597.56 288.689C597.724 289.281 597.806 289.94 597.806 290.667ZM596.171 290.851V290.667C596.171 290.192 596.121 289.747 596.021 289.331C595.922 288.909 595.767 288.54 595.556 288.223C595.351 287.901 595.087 287.649 594.765 287.467C594.442 287.28 594.059 287.186 593.613 287.186C593.203 287.186 592.846 287.256 592.541 287.397C592.242 287.538 591.987 287.728 591.776 287.968C591.565 288.203 591.393 288.472 591.258 288.777C591.129 289.076 591.032 289.386 590.968 289.708V291.985C591.085 292.395 591.249 292.782 591.46 293.145C591.671 293.502 591.952 293.792 592.304 294.015C592.655 294.232 593.098 294.34 593.631 294.34C594.07 294.34 594.448 294.25 594.765 294.068C595.087 293.88 595.351 293.625 595.556 293.303C595.767 292.981 595.922 292.612 596.021 292.196C596.121 291.774 596.171 291.326 596.171 290.851ZM601.506 287.819V299.157H599.871V285.991H601.365L601.506 287.819ZM607.913 290.667V290.851C607.913 291.542 607.831 292.184 607.667 292.776C607.503 293.362 607.263 293.872 606.946 294.305C606.636 294.739 606.252 295.076 605.795 295.316C605.338 295.556 604.813 295.676 604.222 295.676C603.618 295.676 603.085 295.577 602.622 295.377C602.159 295.178 601.767 294.888 601.444 294.507C601.122 294.126 600.864 293.669 600.671 293.136C600.483 292.603 600.354 292.002 600.284 291.334V290.35C600.354 289.647 600.486 289.017 600.68 288.46C600.873 287.904 601.128 287.429 601.444 287.037C601.767 286.638 602.156 286.336 602.613 286.131C603.07 285.92 603.598 285.815 604.195 285.815C604.793 285.815 605.323 285.932 605.786 286.167C606.249 286.395 606.639 286.723 606.955 287.151C607.271 287.579 607.509 288.091 607.667 288.689C607.831 289.281 607.913 289.94 607.913 290.667ZM606.278 290.851V290.667C606.278 290.192 606.229 289.747 606.129 289.331C606.029 288.909 605.874 288.54 605.663 288.223C605.458 287.901 605.194 287.649 604.872 287.467C604.55 287.28 604.166 287.186 603.721 287.186C603.311 287.186 602.953 287.256 602.648 287.397C602.35 287.538 602.095 287.728 601.884 287.968C601.673 288.203 601.5 288.472 601.365 288.777C601.236 289.076 601.14 289.386 601.075 289.708V291.985C601.192 292.395 601.356 292.782 601.567 293.145C601.778 293.502 602.06 293.792 602.411 294.015C602.763 294.232 603.205 294.34 603.738 294.34C604.178 294.34 604.556 294.25 604.872 294.068C605.194 293.88 605.458 293.625 605.663 293.303C605.874 292.981 606.029 292.612 606.129 292.196C606.229 291.774 606.278 291.326 606.278 290.851Z" fill="black"/>
<path d="M434.223 262.837L429.986 274.5H428.255L433.133 261.704H434.249L434.223 262.837ZM437.773 274.5L433.528 262.837L433.502 261.704H434.618L439.514 274.5H437.773ZM437.554 269.763V271.152H430.364V269.763H437.554ZM446.694 272.303V264.991H448.329V274.5H446.773L446.694 272.303ZM447.002 270.299L447.679 270.282C447.679 270.915 447.611 271.5 447.477 272.04C447.348 272.573 447.137 273.036 446.844 273.428C446.551 273.821 446.167 274.128 445.692 274.351C445.218 274.568 444.641 274.676 443.961 274.676C443.498 274.676 443.073 274.609 442.687 274.474C442.306 274.339 441.978 274.131 441.702 273.85C441.427 273.569 441.213 273.203 441.061 272.751C440.914 272.3 440.841 271.758 440.841 271.125V264.991H442.467V271.143C442.467 271.571 442.514 271.925 442.607 272.207C442.707 272.482 442.839 272.702 443.003 272.866C443.173 273.024 443.36 273.135 443.565 273.2C443.776 273.264 443.993 273.296 444.216 273.296C444.907 273.296 445.455 273.165 445.859 272.901C446.264 272.631 446.554 272.271 446.729 271.82C446.911 271.363 447.002 270.856 447.002 270.299ZM456.802 272.655V261H458.437V274.5H456.942L456.802 272.655ZM450.403 269.851V269.667C450.403 268.94 450.491 268.281 450.667 267.689C450.849 267.091 451.104 266.579 451.432 266.151C451.766 265.723 452.161 265.395 452.618 265.167C453.081 264.932 453.597 264.815 454.165 264.815C454.763 264.815 455.284 264.92 455.729 265.131C456.181 265.336 456.562 265.638 456.872 266.037C457.188 266.429 457.438 266.904 457.619 267.46C457.801 268.017 457.927 268.647 457.997 269.35V270.159C457.933 270.856 457.807 271.483 457.619 272.04C457.438 272.596 457.188 273.071 456.872 273.463C456.562 273.856 456.181 274.158 455.729 274.369C455.278 274.574 454.751 274.676 454.147 274.676C453.591 274.676 453.081 274.556 452.618 274.316C452.161 274.076 451.766 273.739 451.432 273.305C451.104 272.872 450.849 272.362 450.667 271.776C450.491 271.184 450.403 270.542 450.403 269.851ZM452.038 269.667V269.851C452.038 270.326 452.085 270.771 452.179 271.187C452.278 271.603 452.431 271.969 452.636 272.286C452.841 272.602 453.102 272.851 453.418 273.033C453.734 273.208 454.112 273.296 454.552 273.296C455.091 273.296 455.533 273.182 455.879 272.954C456.23 272.725 456.512 272.423 456.723 272.048C456.934 271.673 457.098 271.266 457.215 270.827V268.708C457.145 268.386 457.042 268.076 456.907 267.777C456.778 267.472 456.608 267.203 456.397 266.968C456.192 266.728 455.938 266.538 455.633 266.397C455.334 266.256 454.979 266.186 454.569 266.186C454.124 266.186 453.74 266.28 453.418 266.467C453.102 266.649 452.841 266.901 452.636 267.223C452.431 267.54 452.278 267.909 452.179 268.331C452.085 268.747 452.038 269.192 452.038 269.667ZM462.734 264.991V274.5H461.1V264.991H462.734ZM460.977 262.468C460.977 262.205 461.056 261.982 461.214 261.8C461.378 261.619 461.618 261.528 461.935 261.528C462.245 261.528 462.482 261.619 462.646 261.8C462.816 261.982 462.901 262.205 462.901 262.468C462.901 262.72 462.816 262.937 462.646 263.119C462.482 263.294 462.245 263.382 461.935 263.382C461.618 263.382 461.378 263.294 461.214 263.119C461.056 262.937 460.977 262.72 460.977 262.468ZM464.914 269.851V269.649C464.914 268.963 465.014 268.328 465.213 267.742C465.412 267.15 465.699 266.637 466.074 266.204C466.449 265.764 466.903 265.424 467.437 265.184C467.97 264.938 468.567 264.815 469.229 264.815C469.897 264.815 470.498 264.938 471.031 265.184C471.57 265.424 472.027 265.764 472.402 266.204C472.783 266.637 473.073 267.15 473.272 267.742C473.472 268.328 473.571 268.963 473.571 269.649V269.851C473.571 270.537 473.472 271.172 473.272 271.758C473.073 272.344 472.783 272.857 472.402 273.296C472.027 273.73 471.573 274.07 471.04 274.316C470.513 274.556 469.915 274.676 469.247 274.676C468.579 274.676 467.979 274.556 467.445 274.316C466.912 274.07 466.455 273.73 466.074 273.296C465.699 272.857 465.412 272.344 465.213 271.758C465.014 271.172 464.914 270.537 464.914 269.851ZM466.54 269.649V269.851C466.54 270.326 466.596 270.774 466.707 271.196C466.818 271.612 466.985 271.981 467.208 272.303C467.437 272.625 467.721 272.88 468.061 273.068C468.4 273.25 468.796 273.34 469.247 273.34C469.692 273.34 470.082 273.25 470.416 273.068C470.756 272.88 471.037 272.625 471.26 272.303C471.482 271.981 471.649 271.612 471.761 271.196C471.878 270.774 471.937 270.326 471.937 269.851V269.649C471.937 269.18 471.878 268.738 471.761 268.322C471.649 267.9 471.479 267.528 471.251 267.206C471.028 266.877 470.747 266.62 470.407 266.432C470.073 266.245 469.681 266.151 469.229 266.151C468.784 266.151 468.392 266.245 468.052 266.432C467.718 266.62 467.437 266.877 467.208 267.206C466.985 267.528 466.818 267.9 466.707 268.322C466.596 268.738 466.54 269.18 466.54 269.649ZM479.592 264.991V266.239H474.45V264.991H479.592ZM476.19 262.679H477.816V272.145C477.816 272.467 477.866 272.71 477.966 272.875C478.065 273.039 478.194 273.147 478.353 273.2C478.511 273.252 478.681 273.279 478.862 273.279C478.997 273.279 479.138 273.267 479.284 273.244C479.437 273.214 479.551 273.191 479.627 273.173L479.636 274.5C479.507 274.542 479.337 274.58 479.126 274.615C478.921 274.656 478.672 274.676 478.379 274.676C477.98 274.676 477.614 274.597 477.28 274.439C476.946 274.281 476.68 274.017 476.48 273.648C476.287 273.273 476.19 272.769 476.19 272.136V262.679ZM480.893 269.851V269.649C480.893 268.963 480.992 268.328 481.191 267.742C481.391 267.15 481.678 266.637 482.053 266.204C482.428 265.764 482.882 265.424 483.415 265.184C483.948 264.938 484.546 264.815 485.208 264.815C485.876 264.815 486.477 264.938 487.01 265.184C487.549 265.424 488.006 265.764 488.381 266.204C488.762 266.637 489.052 267.15 489.251 267.742C489.45 268.328 489.55 268.963 489.55 269.649V269.851C489.55 270.537 489.45 271.172 489.251 271.758C489.052 272.344 488.762 272.857 488.381 273.296C488.006 273.73 487.552 274.07 487.019 274.316C486.491 274.556 485.894 274.676 485.226 274.676C484.558 274.676 483.957 274.556 483.424 274.316C482.891 274.07 482.434 273.73 482.053 273.296C481.678 272.857 481.391 272.344 481.191 271.758C480.992 271.172 480.893 270.537 480.893 269.851ZM482.519 269.649V269.851C482.519 270.326 482.574 270.774 482.686 271.196C482.797 271.612 482.964 271.981 483.187 272.303C483.415 272.625 483.699 272.88 484.039 273.068C484.379 273.25 484.774 273.34 485.226 273.34C485.671 273.34 486.061 273.25 486.395 273.068C486.734 272.88 487.016 272.625 487.238 272.303C487.461 271.981 487.628 271.612 487.739 271.196C487.856 270.774 487.915 270.326 487.915 269.851V269.649C487.915 269.18 487.856 268.738 487.739 268.322C487.628 267.9 487.458 267.528 487.229 267.206C487.007 266.877 486.726 266.62 486.386 266.432C486.052 266.245 485.659 266.151 485.208 266.151C484.763 266.151 484.37 266.245 484.03 266.432C483.696 266.62 483.415 266.877 483.187 267.206C482.964 267.528 482.797 267.9 482.686 268.322C482.574 268.738 482.519 269.18 482.519 269.649ZM497.407 272.303V264.991H499.042V274.5H497.486L497.407 272.303ZM497.715 270.299L498.392 270.282C498.392 270.915 498.324 271.5 498.189 272.04C498.061 272.573 497.85 273.036 497.557 273.428C497.264 273.821 496.88 274.128 496.405 274.351C495.931 274.568 495.354 274.676 494.674 274.676C494.211 274.676 493.786 274.609 493.399 274.474C493.019 274.339 492.69 274.131 492.415 273.85C492.14 273.569 491.926 273.203 491.773 272.751C491.627 272.3 491.554 271.758 491.554 271.125V264.991H493.18V271.143C493.18 271.571 493.227 271.925 493.32 272.207C493.42 272.482 493.552 272.702 493.716 272.866C493.886 273.024 494.073 273.135 494.278 273.2C494.489 273.264 494.706 273.296 494.929 273.296C495.62 273.296 496.168 273.165 496.572 272.901C496.977 272.631 497.267 272.271 497.442 271.82C497.624 271.363 497.715 270.856 497.715 270.299ZM503.146 266.485V274.5H501.521V264.991H503.103L503.146 266.485ZM506.117 264.938L506.108 266.45C505.974 266.42 505.845 266.403 505.722 266.397C505.604 266.385 505.47 266.379 505.317 266.379C504.942 266.379 504.611 266.438 504.324 266.555C504.037 266.672 503.794 266.836 503.595 267.047C503.396 267.258 503.237 267.51 503.12 267.803C503.009 268.09 502.936 268.407 502.9 268.752L502.443 269.016C502.443 268.442 502.499 267.903 502.61 267.399C502.728 266.895 502.906 266.45 503.146 266.063C503.387 265.67 503.691 265.366 504.061 265.149C504.436 264.926 504.881 264.815 505.396 264.815C505.514 264.815 505.648 264.83 505.801 264.859C505.953 264.882 506.059 264.909 506.117 264.938Z" fill="black"/>
<path d="M170.485 261.704H174.722C175.683 261.704 176.494 261.85 177.156 262.143C177.824 262.436 178.331 262.87 178.677 263.444C179.028 264.012 179.204 264.712 179.204 265.544C179.204 266.13 179.084 266.667 178.844 267.153C178.609 267.633 178.27 268.043 177.824 268.383C177.385 268.717 176.857 268.966 176.242 269.13L175.768 269.315H171.786L171.769 267.935H174.774C175.384 267.935 175.891 267.83 176.295 267.619C176.699 267.402 177.004 267.112 177.209 266.749C177.414 266.385 177.517 265.984 177.517 265.544C177.517 265.052 177.42 264.622 177.227 264.252C177.033 263.883 176.729 263.599 176.312 263.4C175.902 263.195 175.372 263.092 174.722 263.092H172.182V274.5H170.485V261.704ZM177.965 274.5L174.854 268.7L176.62 268.691L179.775 274.395V274.5H177.965ZM185.277 274.676C184.615 274.676 184.015 274.565 183.476 274.342C182.942 274.114 182.482 273.794 182.096 273.384C181.715 272.974 181.422 272.488 181.217 271.925C181.012 271.363 180.909 270.748 180.909 270.08V269.71C180.909 268.937 181.023 268.249 181.252 267.645C181.48 267.036 181.791 266.52 182.184 266.098C182.576 265.676 183.021 265.357 183.52 265.14C184.018 264.923 184.533 264.815 185.066 264.815C185.746 264.815 186.332 264.932 186.824 265.167C187.322 265.401 187.729 265.729 188.046 266.151C188.362 266.567 188.597 267.059 188.749 267.627C188.901 268.19 188.978 268.805 188.978 269.473V270.203H181.876V268.875H187.352V268.752C187.328 268.331 187.24 267.92 187.088 267.522C186.941 267.124 186.707 266.795 186.385 266.538C186.062 266.28 185.623 266.151 185.066 266.151C184.697 266.151 184.357 266.23 184.047 266.388C183.736 266.541 183.47 266.769 183.247 267.074C183.024 267.378 182.852 267.75 182.729 268.19C182.605 268.629 182.544 269.136 182.544 269.71V270.08C182.544 270.531 182.605 270.956 182.729 271.354C182.857 271.747 183.042 272.092 183.282 272.391C183.528 272.69 183.824 272.924 184.17 273.094C184.521 273.264 184.92 273.349 185.365 273.349C185.939 273.349 186.426 273.232 186.824 272.998C187.223 272.763 187.571 272.45 187.87 272.057L188.854 272.839C188.649 273.15 188.389 273.446 188.072 273.727C187.756 274.008 187.366 274.237 186.903 274.413C186.446 274.588 185.904 274.676 185.277 274.676ZM192.643 264.991V274.5H191.008V264.991H192.643ZM190.885 262.468C190.885 262.205 190.964 261.982 191.122 261.8C191.286 261.619 191.526 261.528 191.843 261.528C192.153 261.528 192.391 261.619 192.555 261.8C192.725 261.982 192.81 262.205 192.81 262.468C192.81 262.72 192.725 262.937 192.555 263.119C192.391 263.294 192.153 263.382 191.843 263.382C191.526 263.382 191.286 263.294 191.122 263.119C190.964 262.937 190.885 262.72 190.885 262.468ZM200.79 271.978C200.79 271.744 200.737 271.527 200.632 271.328C200.532 271.123 200.324 270.938 200.008 270.774C199.697 270.604 199.229 270.458 198.602 270.334C198.074 270.223 197.597 270.091 197.169 269.939C196.747 269.787 196.387 269.602 196.088 269.385C195.795 269.168 195.569 268.914 195.411 268.621C195.253 268.328 195.174 267.985 195.174 267.592C195.174 267.217 195.256 266.863 195.42 266.529C195.59 266.195 195.827 265.899 196.132 265.641C196.442 265.383 196.814 265.181 197.248 265.035C197.682 264.888 198.165 264.815 198.698 264.815C199.46 264.815 200.11 264.95 200.649 265.219C201.188 265.489 201.602 265.849 201.889 266.3C202.176 266.746 202.319 267.241 202.319 267.786H200.693C200.693 267.522 200.614 267.267 200.456 267.021C200.304 266.769 200.078 266.561 199.779 266.397C199.486 266.233 199.126 266.151 198.698 266.151C198.247 266.151 197.881 266.221 197.6 266.362C197.324 266.497 197.122 266.669 196.993 266.88C196.87 267.091 196.809 267.314 196.809 267.548C196.809 267.724 196.838 267.882 196.896 268.023C196.961 268.158 197.072 268.284 197.23 268.401C197.389 268.512 197.611 268.618 197.898 268.717C198.186 268.817 198.552 268.917 198.997 269.016C199.776 269.192 200.418 269.403 200.922 269.649C201.426 269.895 201.801 270.197 202.047 270.554C202.293 270.912 202.416 271.345 202.416 271.855C202.416 272.271 202.328 272.652 202.152 272.998C201.982 273.343 201.733 273.642 201.405 273.894C201.083 274.14 200.696 274.333 200.245 274.474C199.8 274.609 199.299 274.676 198.742 274.676C197.904 274.676 197.195 274.527 196.615 274.228C196.035 273.929 195.596 273.542 195.297 273.068C194.998 272.593 194.849 272.092 194.849 271.565H196.483C196.507 272.01 196.636 272.365 196.87 272.628C197.104 272.886 197.392 273.071 197.731 273.182C198.071 273.288 198.408 273.34 198.742 273.34C199.188 273.34 199.56 273.282 199.858 273.165C200.163 273.047 200.395 272.886 200.553 272.681C200.711 272.476 200.79 272.242 200.79 271.978ZM207.443 273.033L210.045 264.991H211.706L208.287 274.5H207.197L207.443 273.033ZM205.272 264.991L207.953 273.077L208.138 274.5H207.048L203.603 264.991H205.272ZM212.699 269.851V269.649C212.699 268.963 212.799 268.328 212.998 267.742C213.197 267.15 213.484 266.637 213.859 266.204C214.234 265.764 214.688 265.424 215.222 265.184C215.755 264.938 216.353 264.815 217.015 264.815C217.683 264.815 218.283 264.938 218.816 265.184C219.355 265.424 219.812 265.764 220.188 266.204C220.568 266.637 220.858 267.15 221.058 267.742C221.257 268.328 221.356 268.963 221.356 269.649V269.851C221.356 270.537 221.257 271.172 221.058 271.758C220.858 272.344 220.568 272.857 220.188 273.296C219.812 273.73 219.358 274.07 218.825 274.316C218.298 274.556 217.7 274.676 217.032 274.676C216.364 274.676 215.764 274.556 215.23 274.316C214.697 274.07 214.24 273.73 213.859 273.296C213.484 272.857 213.197 272.344 212.998 271.758C212.799 271.172 212.699 270.537 212.699 269.851ZM214.325 269.649V269.851C214.325 270.326 214.381 270.774 214.492 271.196C214.604 271.612 214.771 271.981 214.993 272.303C215.222 272.625 215.506 272.88 215.846 273.068C216.186 273.25 216.581 273.34 217.032 273.34C217.478 273.34 217.867 273.25 218.201 273.068C218.541 272.88 218.822 272.625 219.045 272.303C219.268 271.981 219.435 271.612 219.546 271.196C219.663 270.774 219.722 270.326 219.722 269.851V269.649C219.722 269.18 219.663 268.738 219.546 268.322C219.435 267.9 219.265 267.528 219.036 267.206C218.813 266.877 218.532 266.62 218.192 266.432C217.858 266.245 217.466 266.151 217.015 266.151C216.569 266.151 216.177 266.245 215.837 266.432C215.503 266.62 215.222 266.877 214.993 267.206C214.771 267.528 214.604 267.9 214.492 268.322C214.381 268.738 214.325 269.18 214.325 269.649ZM222.965 269.851V269.649C222.965 268.963 223.064 268.328 223.264 267.742C223.463 267.15 223.75 266.637 224.125 266.204C224.5 265.764 224.954 265.424 225.487 265.184C226.021 264.938 226.618 264.815 227.28 264.815C227.948 264.815 228.549 264.938 229.082 265.184C229.621 265.424 230.078 265.764 230.453 266.204C230.834 266.637 231.124 267.15 231.323 267.742C231.522 268.328 231.622 268.963 231.622 269.649V269.851C231.622 270.537 231.522 271.172 231.323 271.758C231.124 272.344 230.834 272.857 230.453 273.296C230.078 273.73 229.624 274.07 229.091 274.316C228.563 274.556 227.966 274.676 227.298 274.676C226.63 274.676 226.029 274.556 225.496 274.316C224.963 274.07 224.506 273.73 224.125 273.296C223.75 272.857 223.463 272.344 223.264 271.758C223.064 271.172 222.965 270.537 222.965 269.851ZM224.591 269.649V269.851C224.591 270.326 224.646 270.774 224.758 271.196C224.869 271.612 225.036 271.981 225.259 272.303C225.487 272.625 225.771 272.88 226.111 273.068C226.451 273.25 226.847 273.34 227.298 273.34C227.743 273.34 228.133 273.25 228.467 273.068C228.807 272.88 229.088 272.625 229.311 272.303C229.533 271.981 229.7 271.612 229.812 271.196C229.929 270.774 229.987 270.326 229.987 269.851V269.649C229.987 269.18 229.929 268.738 229.812 268.322C229.7 267.9 229.53 267.528 229.302 267.206C229.079 266.877 228.798 266.62 228.458 266.432C228.124 266.245 227.731 266.151 227.28 266.151C226.835 266.151 226.442 266.245 226.103 266.432C225.769 266.62 225.487 266.877 225.259 267.206C225.036 267.528 224.869 267.9 224.758 268.322C224.646 268.738 224.591 269.18 224.591 269.649ZM235.287 266.485V274.5H233.661V264.991H235.243L235.287 266.485ZM238.258 264.938L238.249 266.45C238.114 266.42 237.985 266.403 237.862 266.397C237.745 266.385 237.61 266.379 237.458 266.379C237.083 266.379 236.752 266.438 236.465 266.555C236.178 266.672 235.935 266.836 235.735 267.047C235.536 267.258 235.378 267.51 235.261 267.803C235.149 268.09 235.076 268.407 235.041 268.752L234.584 269.016C234.584 268.442 234.64 267.903 234.751 267.399C234.868 266.895 235.047 266.45 235.287 266.063C235.527 265.67 235.832 265.366 236.201 265.149C236.576 264.926 237.021 264.815 237.537 264.815C237.654 264.815 237.789 264.83 237.941 264.859C238.094 264.882 238.199 264.909 238.258 264.938ZM243.145 268.392V269.728H238.855V268.392H243.145ZM170.23 282H171.865V293.655L171.725 295.5H170.23V282ZM178.29 290.667V290.851C178.29 291.542 178.208 292.184 178.044 292.776C177.88 293.362 177.64 293.872 177.323 294.305C177.007 294.739 176.62 295.076 176.163 295.316C175.706 295.556 175.182 295.676 174.59 295.676C173.986 295.676 173.456 295.574 172.999 295.369C172.548 295.158 172.167 294.856 171.856 294.463C171.546 294.071 171.297 293.596 171.109 293.04C170.928 292.483 170.802 291.856 170.731 291.159V290.35C170.802 289.647 170.928 289.017 171.109 288.46C171.297 287.904 171.546 287.429 171.856 287.037C172.167 286.638 172.548 286.336 172.999 286.131C173.45 285.92 173.975 285.815 174.572 285.815C175.17 285.815 175.7 285.932 176.163 286.167C176.626 286.395 177.013 286.723 177.323 287.151C177.64 287.579 177.88 288.091 178.044 288.689C178.208 289.281 178.29 289.94 178.29 290.667ZM176.655 290.851V290.667C176.655 290.192 176.611 289.747 176.523 289.331C176.436 288.909 176.295 288.54 176.102 288.223C175.908 287.901 175.653 287.649 175.337 287.467C175.021 287.28 174.631 287.186 174.168 287.186C173.758 287.186 173.4 287.256 173.096 287.397C172.797 287.538 172.542 287.728 172.331 287.968C172.12 288.203 171.947 288.472 171.812 288.777C171.684 289.076 171.587 289.386 171.522 289.708V291.827C171.616 292.237 171.769 292.632 171.979 293.013C172.196 293.388 172.483 293.696 172.841 293.936C173.204 294.176 173.652 294.296 174.186 294.296C174.625 294.296 175 294.208 175.311 294.033C175.627 293.851 175.882 293.602 176.075 293.286C176.274 292.969 176.421 292.603 176.515 292.187C176.608 291.771 176.655 291.326 176.655 290.851ZM184.293 295.676C183.631 295.676 183.03 295.565 182.491 295.342C181.958 295.114 181.498 294.794 181.111 294.384C180.73 293.974 180.438 293.488 180.232 292.925C180.027 292.363 179.925 291.748 179.925 291.08V290.71C179.925 289.937 180.039 289.249 180.268 288.645C180.496 288.036 180.807 287.52 181.199 287.098C181.592 286.676 182.037 286.357 182.535 286.14C183.033 285.923 183.549 285.815 184.082 285.815C184.762 285.815 185.348 285.932 185.84 286.167C186.338 286.401 186.745 286.729 187.062 287.151C187.378 287.567 187.612 288.059 187.765 288.627C187.917 289.19 187.993 289.805 187.993 290.473V291.203H180.892V289.875H186.367V289.752C186.344 289.331 186.256 288.92 186.104 288.522C185.957 288.124 185.723 287.795 185.4 287.538C185.078 287.28 184.639 287.151 184.082 287.151C183.713 287.151 183.373 287.23 183.062 287.388C182.752 287.541 182.485 287.769 182.263 288.074C182.04 288.378 181.867 288.75 181.744 289.19C181.621 289.629 181.56 290.136 181.56 290.71V291.08C181.56 291.531 181.621 291.956 181.744 292.354C181.873 292.747 182.058 293.092 182.298 293.391C182.544 293.69 182.84 293.924 183.186 294.094C183.537 294.264 183.936 294.349 184.381 294.349C184.955 294.349 185.441 294.232 185.84 293.998C186.238 293.763 186.587 293.45 186.886 293.057L187.87 293.839C187.665 294.15 187.404 294.446 187.088 294.727C186.771 295.008 186.382 295.237 185.919 295.413C185.462 295.588 184.92 295.676 184.293 295.676ZM191.518 287.485V295.5H189.892V285.991H191.474L191.518 287.485ZM194.488 285.938L194.479 287.45C194.345 287.42 194.216 287.403 194.093 287.397C193.976 287.385 193.841 287.379 193.688 287.379C193.313 287.379 192.982 287.438 192.695 287.555C192.408 287.672 192.165 287.836 191.966 288.047C191.767 288.258 191.608 288.51 191.491 288.803C191.38 289.09 191.307 289.407 191.271 289.752L190.814 290.016C190.814 289.442 190.87 288.903 190.981 288.399C191.099 287.895 191.277 287.45 191.518 287.063C191.758 286.67 192.062 286.366 192.432 286.149C192.807 285.926 193.252 285.815 193.768 285.815C193.885 285.815 194.02 285.83 194.172 285.859C194.324 285.882 194.43 285.909 194.488 285.938ZM199.762 295.676C199.1 295.676 198.499 295.565 197.96 295.342C197.427 295.114 196.967 294.794 196.58 294.384C196.199 293.974 195.906 293.488 195.701 292.925C195.496 292.363 195.394 291.748 195.394 291.08V290.71C195.394 289.937 195.508 289.249 195.736 288.645C195.965 288.036 196.275 287.52 196.668 287.098C197.061 286.676 197.506 286.357 198.004 286.14C198.502 285.923 199.018 285.815 199.551 285.815C200.23 285.815 200.816 285.932 201.309 286.167C201.807 286.401 202.214 286.729 202.53 287.151C202.847 287.567 203.081 288.059 203.233 288.627C203.386 289.19 203.462 289.805 203.462 290.473V291.203H196.36V289.875H201.836V289.752C201.812 289.331 201.725 288.92 201.572 288.522C201.426 288.124 201.191 287.795 200.869 287.538C200.547 287.28 200.107 287.151 199.551 287.151C199.182 287.151 198.842 287.23 198.531 287.388C198.221 287.541 197.954 287.769 197.731 288.074C197.509 288.378 197.336 288.75 197.213 289.19C197.09 289.629 197.028 290.136 197.028 290.71V291.08C197.028 291.531 197.09 291.956 197.213 292.354C197.342 292.747 197.526 293.092 197.767 293.391C198.013 293.69 198.309 293.924 198.654 294.094C199.006 294.264 199.404 294.349 199.85 294.349C200.424 294.349 200.91 294.232 201.309 293.998C201.707 293.763 202.056 293.45 202.354 293.057L203.339 293.839C203.134 294.15 202.873 294.446 202.557 294.727C202.24 295.008 201.851 295.237 201.388 295.413C200.931 295.588 200.389 295.676 199.762 295.676ZM207.127 285.991V295.5H205.492V285.991H207.127ZM205.369 283.468C205.369 283.205 205.448 282.982 205.606 282.8C205.771 282.619 206.011 282.528 206.327 282.528C206.638 282.528 206.875 282.619 207.039 282.8C207.209 282.982 207.294 283.205 207.294 283.468C207.294 283.72 207.209 283.937 207.039 284.119C206.875 284.294 206.638 284.382 206.327 284.382C206.011 284.382 205.771 284.294 205.606 284.119C205.448 283.937 205.369 283.72 205.369 283.468ZM215.731 293.655V282H217.366V295.5H215.872L215.731 293.655ZM209.333 290.851V290.667C209.333 289.94 209.421 289.281 209.597 288.689C209.778 288.091 210.033 287.579 210.361 287.151C210.695 286.723 211.091 286.395 211.548 286.167C212.011 285.932 212.526 285.815 213.095 285.815C213.692 285.815 214.214 285.92 214.659 286.131C215.11 286.336 215.491 286.638 215.802 287.037C216.118 287.429 216.367 287.904 216.549 288.46C216.73 289.017 216.856 289.647 216.927 290.35V291.159C216.862 291.856 216.736 292.483 216.549 293.04C216.367 293.596 216.118 294.071 215.802 294.463C215.491 294.856 215.11 295.158 214.659 295.369C214.208 295.574 213.681 295.676 213.077 295.676C212.521 295.676 212.011 295.556 211.548 295.316C211.091 295.076 210.695 294.739 210.361 294.305C210.033 293.872 209.778 293.362 209.597 292.776C209.421 292.184 209.333 291.542 209.333 290.851ZM210.968 290.667V290.851C210.968 291.326 211.015 291.771 211.108 292.187C211.208 292.603 211.36 292.969 211.565 293.286C211.771 293.602 212.031 293.851 212.348 294.033C212.664 294.208 213.042 294.296 213.481 294.296C214.021 294.296 214.463 294.182 214.809 293.954C215.16 293.725 215.441 293.423 215.652 293.048C215.863 292.673 216.027 292.266 216.145 291.827V289.708C216.074 289.386 215.972 289.076 215.837 288.777C215.708 288.472 215.538 288.203 215.327 287.968C215.122 287.728 214.867 287.538 214.562 287.397C214.264 287.256 213.909 287.186 213.499 287.186C213.054 287.186 212.67 287.28 212.348 287.467C212.031 287.649 211.771 287.901 211.565 288.223C211.36 288.54 211.208 288.909 211.108 289.331C211.015 289.747 210.968 290.192 210.968 290.667ZM221.664 285.991V295.5H220.029V285.991H221.664ZM219.906 283.468C219.906 283.205 219.985 282.982 220.144 282.8C220.308 282.619 220.548 282.528 220.864 282.528C221.175 282.528 221.412 282.619 221.576 282.8C221.746 282.982 221.831 283.205 221.831 283.468C221.831 283.72 221.746 283.937 221.576 284.119C221.412 284.294 221.175 284.382 220.864 284.382C220.548 284.382 220.308 284.294 220.144 284.119C219.985 283.937 219.906 283.72 219.906 283.468ZM225.9 288.021V295.5H224.274V285.991H225.812L225.9 288.021ZM225.514 290.385L224.837 290.359C224.843 289.708 224.939 289.108 225.127 288.557C225.314 288 225.578 287.517 225.918 287.107C226.258 286.697 226.662 286.38 227.131 286.158C227.605 285.929 228.13 285.815 228.704 285.815C229.173 285.815 229.595 285.879 229.97 286.008C230.345 286.131 230.664 286.331 230.928 286.606C231.197 286.881 231.402 287.239 231.543 287.678C231.684 288.112 231.754 288.642 231.754 289.269V295.5H230.119V289.251C230.119 288.753 230.046 288.355 229.899 288.056C229.753 287.751 229.539 287.532 229.258 287.397C228.977 287.256 228.631 287.186 228.221 287.186C227.816 287.186 227.447 287.271 227.113 287.441C226.785 287.611 226.501 287.845 226.261 288.144C226.026 288.443 225.842 288.786 225.707 289.172C225.578 289.553 225.514 289.958 225.514 290.385ZM240.385 285.991H241.861V295.298C241.861 296.136 241.691 296.851 241.352 297.443C241.012 298.035 240.537 298.483 239.928 298.788C239.324 299.098 238.627 299.253 237.836 299.253C237.508 299.253 237.121 299.201 236.676 299.095C236.236 298.996 235.803 298.823 235.375 298.577C234.953 298.336 234.599 298.011 234.312 297.601L235.164 296.634C235.562 297.115 235.979 297.449 236.412 297.636C236.852 297.824 237.285 297.917 237.713 297.917C238.229 297.917 238.674 297.821 239.049 297.627C239.424 297.434 239.714 297.147 239.919 296.766C240.13 296.391 240.235 295.928 240.235 295.377V288.083L240.385 285.991ZM233.837 290.851V290.667C233.837 289.94 233.922 289.281 234.092 288.689C234.268 288.091 234.517 287.579 234.839 287.151C235.167 286.723 235.562 286.395 236.025 286.167C236.488 285.932 237.01 285.815 237.59 285.815C238.188 285.815 238.709 285.92 239.154 286.131C239.605 286.336 239.986 286.638 240.297 287.037C240.613 287.429 240.862 287.904 241.044 288.46C241.226 289.017 241.352 289.647 241.422 290.35V291.159C241.357 291.856 241.231 292.483 241.044 293.04C240.862 293.596 240.613 294.071 240.297 294.463C239.986 294.856 239.605 295.158 239.154 295.369C238.703 295.574 238.176 295.676 237.572 295.676C237.004 295.676 236.488 295.556 236.025 295.316C235.568 295.076 235.176 294.739 234.848 294.305C234.52 293.872 234.268 293.362 234.092 292.776C233.922 292.184 233.837 291.542 233.837 290.851ZM235.463 290.667V290.851C235.463 291.326 235.51 291.771 235.604 292.187C235.703 292.603 235.853 292.969 236.052 293.286C236.257 293.602 236.518 293.851 236.834 294.033C237.15 294.208 237.528 294.296 237.968 294.296C238.507 294.296 238.952 294.182 239.304 293.954C239.655 293.725 239.934 293.423 240.139 293.048C240.35 292.673 240.514 292.266 240.631 291.827V289.708C240.566 289.386 240.467 289.076 240.332 288.777C240.203 288.472 240.033 288.203 239.822 287.968C239.617 287.728 239.362 287.538 239.058 287.397C238.753 287.256 238.396 287.186 237.985 287.186C237.54 287.186 237.156 287.28 236.834 287.467C236.518 287.649 236.257 287.901 236.052 288.223C235.853 288.54 235.703 288.909 235.604 289.331C235.51 289.747 235.463 290.192 235.463 290.667Z" fill="black"/>
<path d="M47.0723 273.121V274.5H38.4062V273.121H47.0723ZM46.791 262.934L38.8105 274.5H37.7646V273.235L45.7363 261.704H46.791V262.934ZM46.0703 261.704V263.092H37.8789V261.704H46.0703ZM48.4082 269.851V269.649C48.4082 268.963 48.5078 268.328 48.707 267.742C48.9062 267.15 49.1934 266.637 49.5684 266.204C49.9434 265.764 50.3975 265.424 50.9307 265.184C51.4639 264.938 52.0615 264.815 52.7236 264.815C53.3916 264.815 53.9922 264.938 54.5254 265.184C55.0645 265.424 55.5215 265.764 55.8965 266.204C56.2773 266.637 56.5674 267.15 56.7666 267.742C56.9658 268.328 57.0654 268.963 57.0654 269.649V269.851C57.0654 270.537 56.9658 271.172 56.7666 271.758C56.5674 272.344 56.2773 272.857 55.8965 273.296C55.5215 273.73 55.0674 274.07 54.5342 274.316C54.0068 274.556 53.4092 274.676 52.7412 274.676C52.0732 274.676 51.4727 274.556 50.9395 274.316C50.4062 274.07 49.9492 273.73 49.5684 273.296C49.1934 272.857 48.9062 272.344 48.707 271.758C48.5078 271.172 48.4082 270.537 48.4082 269.851ZM50.0342 269.649V269.851C50.0342 270.326 50.0898 270.774 50.2012 271.196C50.3125 271.612 50.4795 271.981 50.7021 272.303C50.9307 272.625 51.2148 272.88 51.5547 273.068C51.8945 273.25 52.29 273.34 52.7412 273.34C53.1865 273.34 53.5762 273.25 53.9102 273.068C54.25 272.88 54.5312 272.625 54.7539 272.303C54.9766 271.981 55.1436 271.612 55.2549 271.196C55.3721 270.774 55.4307 270.326 55.4307 269.851V269.649C55.4307 269.18 55.3721 268.738 55.2549 268.322C55.1436 267.9 54.9736 267.528 54.7451 267.206C54.5225 266.877 54.2412 266.62 53.9014 266.432C53.5674 266.245 53.1748 266.151 52.7236 266.151C52.2783 266.151 51.8857 266.245 51.5459 266.432C51.2119 266.62 50.9307 266.877 50.7021 267.206C50.4795 267.528 50.3125 267.9 50.2012 268.322C50.0898 268.738 50.0342 269.18 50.0342 269.649ZM64.9229 272.303V264.991H66.5576V274.5H65.002L64.9229 272.303ZM65.2305 270.299L65.9072 270.282C65.9072 270.915 65.8398 271.5 65.7051 272.04C65.5762 272.573 65.3652 273.036 65.0723 273.428C64.7793 273.821 64.3955 274.128 63.9209 274.351C63.4463 274.568 62.8691 274.676 62.1895 274.676C61.7266 274.676 61.3018 274.609 60.915 274.474C60.5342 274.339 60.2061 274.131 59.9307 273.85C59.6553 273.569 59.4414 273.203 59.2891 272.751C59.1426 272.3 59.0693 271.758 59.0693 271.125V264.991H60.6953V271.143C60.6953 271.571 60.7422 271.925 60.8359 272.207C60.9355 272.482 61.0674 272.702 61.2314 272.866C61.4014 273.024 61.5889 273.135 61.7939 273.2C62.0049 273.264 62.2217 273.296 62.4443 273.296C63.1357 273.296 63.6836 273.165 64.0879 272.901C64.4922 272.631 64.7822 272.271 64.958 271.82C65.1396 271.363 65.2305 270.856 65.2305 270.299ZM78.4844 262.837L74.248 274.5H72.5166L77.3945 261.704H78.5107L78.4844 262.837ZM82.0352 274.5L77.79 262.837L77.7637 261.704H78.8799L83.7754 274.5H82.0352ZM81.8154 269.763V271.152H74.626V269.763H81.8154ZM86.8691 266.819V278.157H85.2344V264.991H86.7285L86.8691 266.819ZM93.2764 269.667V269.851C93.2764 270.542 93.1943 271.184 93.0303 271.776C92.8662 272.362 92.626 272.872 92.3096 273.305C91.999 273.739 91.6152 274.076 91.1582 274.316C90.7012 274.556 90.1768 274.676 89.585 274.676C88.9814 274.676 88.4482 274.577 87.9854 274.377C87.5225 274.178 87.1299 273.888 86.8076 273.507C86.4854 273.126 86.2275 272.669 86.0342 272.136C85.8467 271.603 85.7178 271.002 85.6475 270.334V269.35C85.7178 268.647 85.8496 268.017 86.043 267.46C86.2363 266.904 86.4912 266.429 86.8076 266.037C87.1299 265.638 87.5195 265.336 87.9766 265.131C88.4336 264.92 88.9609 264.815 89.5586 264.815C90.1562 264.815 90.6865 264.932 91.1494 265.167C91.6123 265.395 92.002 265.723 92.3184 266.151C92.6348 266.579 92.8721 267.091 93.0303 267.689C93.1943 268.281 93.2764 268.94 93.2764 269.667ZM91.6416 269.851V269.667C91.6416 269.192 91.5918 268.747 91.4922 268.331C91.3926 267.909 91.2373 267.54 91.0264 267.223C90.8213 266.901 90.5576 266.649 90.2354 266.467C89.9131 266.28 89.5293 266.186 89.084 266.186C88.6738 266.186 88.3164 266.256 88.0117 266.397C87.7129 266.538 87.458 266.728 87.2471 266.968C87.0361 267.203 86.8633 267.472 86.7285 267.777C86.5996 268.076 86.5029 268.386 86.4385 268.708V270.985C86.5557 271.395 86.7197 271.782 86.9307 272.145C87.1416 272.502 87.4229 272.792 87.7744 273.015C88.126 273.232 88.5684 273.34 89.1016 273.34C89.541 273.34 89.9189 273.25 90.2354 273.068C90.5576 272.88 90.8213 272.625 91.0264 272.303C91.2373 271.981 91.3926 271.612 91.4922 271.196C91.5918 270.774 91.6416 270.326 91.6416 269.851ZM96.9766 266.819V278.157H95.3418V264.991H96.8359L96.9766 266.819ZM103.384 269.667V269.851C103.384 270.542 103.302 271.184 103.138 271.776C102.974 272.362 102.733 272.872 102.417 273.305C102.106 273.739 101.723 274.076 101.266 274.316C100.809 274.556 100.284 274.676 99.6924 274.676C99.0889 274.676 98.5557 274.577 98.0928 274.377C97.6299 274.178 97.2373 273.888 96.915 273.507C96.5928 273.126 96.335 272.669 96.1416 272.136C95.9541 271.603 95.8252 271.002 95.7549 270.334V269.35C95.8252 268.647 95.957 268.017 96.1504 267.46C96.3438 266.904 96.5986 266.429 96.915 266.037C97.2373 265.638 97.627 265.336 98.084 265.131C98.541 264.92 99.0684 264.815 99.666 264.815C100.264 264.815 100.794 264.932 101.257 265.167C101.72 265.395 102.109 265.723 102.426 266.151C102.742 266.579 102.979 267.091 103.138 267.689C103.302 268.281 103.384 268.94 103.384 269.667ZM101.749 269.851V269.667C101.749 269.192 101.699 268.747 101.6 268.331C101.5 267.909 101.345 267.54 101.134 267.223C100.929 266.901 100.665 266.649 100.343 266.467C100.021 266.28 99.6367 266.186 99.1914 266.186C98.7812 266.186 98.4238 266.256 98.1191 266.397C97.8203 266.538 97.5654 266.728 97.3545 266.968C97.1436 267.203 96.9707 267.472 96.8359 267.777C96.707 268.076 96.6104 268.386 96.5459 268.708V270.985C96.6631 271.395 96.8271 271.782 97.0381 272.145C97.249 272.502 97.5303 272.792 97.8818 273.015C98.2334 273.232 98.6758 273.34 99.209 273.34C99.6484 273.34 100.026 273.25 100.343 273.068C100.665 272.88 100.929 272.625 101.134 272.303C101.345 271.981 101.5 271.612 101.6 271.196C101.699 270.774 101.749 270.326 101.749 269.851ZM44.4004 285.991H45.877V295.298C45.877 296.136 45.707 296.851 45.3672 297.443C45.0273 298.035 44.5527 298.483 43.9434 298.788C43.3398 299.098 42.6426 299.253 41.8516 299.253C41.5234 299.253 41.1367 299.201 40.6914 299.095C40.252 298.996 39.8184 298.823 39.3906 298.577C38.9688 298.336 38.6143 298.011 38.3271 297.601L39.1797 296.634C39.5781 297.115 39.9941 297.449 40.4277 297.636C40.8672 297.824 41.3008 297.917 41.7285 297.917C42.2441 297.917 42.6895 297.821 43.0645 297.627C43.4395 297.434 43.7295 297.147 43.9346 296.766C44.1455 296.391 44.251 295.928 44.251 295.377V288.083L44.4004 285.991ZM37.8525 290.851V290.667C37.8525 289.94 37.9375 289.281 38.1074 288.689C38.2832 288.091 38.5322 287.579 38.8545 287.151C39.1826 286.723 39.5781 286.395 40.041 286.167C40.5039 285.932 41.0254 285.815 41.6055 285.815C42.2031 285.815 42.7246 285.92 43.1699 286.131C43.6211 286.336 44.002 286.638 44.3125 287.037C44.6289 287.429 44.8779 287.904 45.0596 288.46C45.2412 289.017 45.3672 289.647 45.4375 290.35V291.159C45.373 291.856 45.2471 292.483 45.0596 293.04C44.8779 293.596 44.6289 294.071 44.3125 294.463C44.002 294.856 43.6211 295.158 43.1699 295.369C42.7188 295.574 42.1914 295.676 41.5879 295.676C41.0195 295.676 40.5039 295.556 40.041 295.316C39.584 295.076 39.1914 294.739 38.8633 294.305C38.5352 293.872 38.2832 293.362 38.1074 292.776C37.9375 292.184 37.8525 291.542 37.8525 290.851ZM39.4785 290.667V290.851C39.4785 291.326 39.5254 291.771 39.6191 292.187C39.7188 292.603 39.8682 292.969 40.0674 293.286C40.2725 293.602 40.5332 293.851 40.8496 294.033C41.166 294.208 41.5439 294.296 41.9834 294.296C42.5225 294.296 42.9678 294.182 43.3193 293.954C43.6709 293.725 43.9492 293.423 44.1543 293.048C44.3652 292.673 44.5293 292.266 44.6465 291.827V289.708C44.582 289.386 44.4824 289.076 44.3477 288.777C44.2188 288.472 44.0488 288.203 43.8379 287.968C43.6328 287.728 43.3779 287.538 43.0732 287.397C42.7686 287.256 42.4111 287.186 42.001 287.186C41.5557 287.186 41.1719 287.28 40.8496 287.467C40.5332 287.649 40.2725 287.901 40.0674 288.223C39.8682 288.54 39.7188 288.909 39.6191 289.331C39.5254 289.747 39.4785 290.192 39.4785 290.667ZM52.293 295.676C51.6309 295.676 51.0303 295.565 50.4912 295.342C49.958 295.114 49.498 294.794 49.1113 294.384C48.7305 293.974 48.4375 293.488 48.2324 292.925C48.0273 292.363 47.9248 291.748 47.9248 291.08V290.71C47.9248 289.937 48.0391 289.249 48.2676 288.645C48.4961 288.036 48.8066 287.52 49.1992 287.098C49.5918 286.676 50.0371 286.357 50.5352 286.14C51.0332 285.923 51.5488 285.815 52.082 285.815C52.7617 285.815 53.3477 285.932 53.8398 286.167C54.3379 286.401 54.7451 286.729 55.0615 287.151C55.3779 287.567 55.6123 288.059 55.7646 288.627C55.917 289.19 55.9932 289.805 55.9932 290.473V291.203H48.8916V289.875H54.3672V289.752C54.3438 289.331 54.2559 288.92 54.1035 288.522C53.957 288.124 53.7227 287.795 53.4004 287.538C53.0781 287.28 52.6387 287.151 52.082 287.151C51.7129 287.151 51.373 287.23 51.0625 287.388C50.752 287.541 50.4854 287.769 50.2627 288.074C50.04 288.378 49.8672 288.75 49.7441 289.19C49.6211 289.629 49.5596 290.136 49.5596 290.71V291.08C49.5596 291.531 49.6211 291.956 49.7441 292.354C49.873 292.747 50.0576 293.092 50.2979 293.391C50.5439 293.69 50.8398 293.924 51.1855 294.094C51.5371 294.264 51.9355 294.349 52.3809 294.349C52.9551 294.349 53.4414 294.232 53.8398 293.998C54.2383 293.763 54.5869 293.45 54.8857 293.057L55.8701 293.839C55.665 294.15 55.4043 294.446 55.0879 294.727C54.7715 295.008 54.3818 295.237 53.9189 295.413C53.4619 295.588 52.9199 295.676 52.293 295.676ZM57.8828 282H59.5176V293.655L59.377 295.5H57.8828V282ZM65.9424 290.667V290.851C65.9424 291.542 65.8604 292.184 65.6963 292.776C65.5322 293.362 65.292 293.872 64.9756 294.305C64.6592 294.739 64.2725 295.076 63.8154 295.316C63.3584 295.556 62.834 295.676 62.2422 295.676C61.6387 295.676 61.1084 295.574 60.6514 295.369C60.2002 295.158 59.8193 294.856 59.5088 294.463C59.1982 294.071 58.9492 293.596 58.7617 293.04C58.5801 292.483 58.4541 291.856 58.3838 291.159V290.35C58.4541 289.647 58.5801 289.017 58.7617 288.46C58.9492 287.904 59.1982 287.429 59.5088 287.037C59.8193 286.638 60.2002 286.336 60.6514 286.131C61.1025 285.92 61.627 285.815 62.2246 285.815C62.8223 285.815 63.3525 285.932 63.8154 286.167C64.2783 286.395 64.665 286.723 64.9756 287.151C65.292 287.579 65.5322 288.091 65.6963 288.689C65.8604 289.281 65.9424 289.94 65.9424 290.667ZM64.3076 290.851V290.667C64.3076 290.192 64.2637 289.747 64.1758 289.331C64.0879 288.909 63.9473 288.54 63.7539 288.223C63.5605 287.901 63.3057 287.649 62.9893 287.467C62.6729 287.28 62.2832 287.186 61.8203 287.186C61.4102 287.186 61.0527 287.256 60.748 287.397C60.4492 287.538 60.1943 287.728 59.9834 287.968C59.7725 288.203 59.5996 288.472 59.4648 288.777C59.3359 289.076 59.2393 289.386 59.1748 289.708V291.827C59.2686 292.237 59.4209 292.632 59.6318 293.013C59.8486 293.388 60.1357 293.696 60.4932 293.936C60.8564 294.176 61.3047 294.296 61.8379 294.296C62.2773 294.296 62.6523 294.208 62.9629 294.033C63.2793 293.851 63.5342 293.602 63.7275 293.286C63.9268 292.969 64.0732 292.603 64.167 292.187C64.2607 291.771 64.3076 291.326 64.3076 290.851ZM69.625 287.485V295.5H67.999V285.991H69.5811L69.625 287.485ZM72.5957 285.938L72.5869 287.45C72.4521 287.42 72.3232 287.403 72.2002 287.397C72.083 287.385 71.9482 287.379 71.7959 287.379C71.4209 287.379 71.0898 287.438 70.8027 287.555C70.5156 287.672 70.2725 287.836 70.0732 288.047C69.874 288.258 69.7158 288.51 69.5986 288.803C69.4873 289.09 69.4141 289.407 69.3789 289.752L68.9219 290.016C68.9219 289.442 68.9775 288.903 69.0889 288.399C69.2061 287.895 69.3848 287.45 69.625 287.063C69.8652 286.67 70.1699 286.366 70.5391 286.149C70.9141 285.926 71.3594 285.815 71.875 285.815C71.9922 285.815 72.127 285.83 72.2793 285.859C72.4316 285.882 72.5371 285.909 72.5957 285.938ZM79.917 293.303V285.991H81.5518V295.5H79.9961L79.917 293.303ZM80.2246 291.299L80.9014 291.282C80.9014 291.915 80.834 292.5 80.6992 293.04C80.5703 293.573 80.3594 294.036 80.0664 294.428C79.7734 294.821 79.3896 295.128 78.915 295.351C78.4404 295.568 77.8633 295.676 77.1836 295.676C76.7207 295.676 76.2959 295.609 75.9092 295.474C75.5283 295.339 75.2002 295.131 74.9248 294.85C74.6494 294.569 74.4355 294.203 74.2832 293.751C74.1367 293.3 74.0635 292.758 74.0635 292.125V285.991H75.6895V292.143C75.6895 292.571 75.7363 292.925 75.8301 293.207C75.9297 293.482 76.0615 293.702 76.2256 293.866C76.3955 294.024 76.583 294.135 76.7881 294.2C76.999 294.264 77.2158 294.296 77.4385 294.296C78.1299 294.296 78.6777 294.165 79.082 293.901C79.4863 293.631 79.7764 293.271 79.9521 292.82C80.1338 292.363 80.2246 291.856 80.2246 291.299ZM85.7969 285.991V295.5H84.1621V285.991H85.7969ZM84.0391 283.468C84.0391 283.205 84.1182 282.982 84.2764 282.8C84.4404 282.619 84.6807 282.528 84.9971 282.528C85.3076 282.528 85.5449 282.619 85.709 282.8C85.8789 282.982 85.9639 283.205 85.9639 283.468C85.9639 283.72 85.8789 283.937 85.709 284.119C85.5449 284.294 85.3076 284.382 84.9971 284.382C84.6807 284.382 84.4404 284.294 84.2764 284.119C84.1182 283.937 84.0391 283.72 84.0391 283.468ZM90.042 282V295.5H88.4072V282H90.042ZM95.8516 285.991L91.7031 290.429L89.3828 292.837L89.251 291.106L90.9121 289.12L93.8652 285.991H95.8516ZM94.3662 295.5L90.9736 290.965L91.8174 289.515L96.2822 295.5H94.3662ZM101.301 295.676C100.639 295.676 100.038 295.565 99.499 295.342C98.9658 295.114 98.5059 294.794 98.1191 294.384C97.7383 293.974 97.4453 293.488 97.2402 292.925C97.0352 292.363 96.9326 291.748 96.9326 291.08V290.71C96.9326 289.937 97.0469 289.249 97.2754 288.645C97.5039 288.036 97.8145 287.52 98.207 287.098C98.5996 286.676 99.0449 286.357 99.543 286.14C100.041 285.923 100.557 285.815 101.09 285.815C101.77 285.815 102.355 285.932 102.848 286.167C103.346 286.401 103.753 286.729 104.069 287.151C104.386 287.567 104.62 288.059 104.772 288.627C104.925 289.19 105.001 289.805 105.001 290.473V291.203H97.8994V289.875H103.375V289.752C103.352 289.331 103.264 288.92 103.111 288.522C102.965 288.124 102.73 287.795 102.408 287.538C102.086 287.28 101.646 287.151 101.09 287.151C100.721 287.151 100.381 287.23 100.07 287.388C99.7598 287.541 99.4932 287.769 99.2705 288.074C99.0479 288.378 98.875 288.75 98.752 289.19C98.6289 289.629 98.5674 290.136 98.5674 290.71V291.08C98.5674 291.531 98.6289 291.956 98.752 292.354C98.8809 292.747 99.0654 293.092 99.3057 293.391C99.5518 293.69 99.8477 293.924 100.193 294.094C100.545 294.264 100.943 294.349 101.389 294.349C101.963 294.349 102.449 294.232 102.848 293.998C103.246 293.763 103.595 293.45 103.894 293.057L104.878 293.839C104.673 294.15 104.412 294.446 104.096 294.727C103.779 295.008 103.39 295.237 102.927 295.413C102.47 295.588 101.928 295.676 101.301 295.676ZM108.525 288.021V295.5H106.899V285.991H108.438L108.525 288.021ZM108.139 290.385L107.462 290.359C107.468 289.708 107.564 289.108 107.752 288.557C107.939 288 108.203 287.517 108.543 287.107C108.883 286.697 109.287 286.38 109.756 286.158C110.23 285.929 110.755 285.815 111.329 285.815C111.798 285.815 112.22 285.879 112.595 286.008C112.97 286.131 113.289 286.331 113.553 286.606C113.822 286.881 114.027 287.239 114.168 287.678C114.309 288.112 114.379 288.642 114.379 289.269V295.5H112.744V289.251C112.744 288.753 112.671 288.355 112.524 288.056C112.378 287.751 112.164 287.532 111.883 287.397C111.602 287.256 111.256 287.186 110.846 287.186C110.441 287.186 110.072 287.271 109.738 287.441C109.41 287.611 109.126 287.845 108.886 288.144C108.651 288.443 108.467 288.786 108.332 289.172C108.203 289.553 108.139 289.958 108.139 290.385Z" fill="black"/>
</svg>
